<mxfile host="app.diagrams.net" agent="Mozilla/5.0 (Windows NT 10.0; Win64; x64) AppleWebKit/537.36 (KHTML, like Gecko) Chrome/134.0.0.0 Safari/537.36" version="26.1.3">
  <diagram name="Página-1" id="tiU5TwA1PUG_1W1-Ujvq">
    <mxGraphModel dx="1754" dy="1050" grid="0" gridSize="10" guides="1" tooltips="1" connect="1" arrows="1" fold="1" page="0" pageScale="1" pageWidth="827" pageHeight="1169" math="0" shadow="0">
      <root>
        <mxCell id="0" />
        <mxCell id="1" parent="0" />
        <mxCell id="Q1HxBQcaeAUIPnin6Fld-35" value="Suministro" style="swimlane;fontStyle=0;childLayout=stackLayout;horizontal=1;startSize=30;horizontalStack=0;resizeParent=1;resizeParentMax=0;resizeLast=0;collapsible=1;marginBottom=0;whiteSpace=wrap;html=1;" vertex="1" parent="1">
          <mxGeometry x="217" y="22" width="205" height="180" as="geometry" />
        </mxCell>
        <mxCell id="Q1HxBQcaeAUIPnin6Fld-36" value="PK&amp;nbsp; &amp;nbsp; &amp;nbsp; &amp;nbsp;ID_Suministro" style="text;strokeColor=none;fillColor=none;align=left;verticalAlign=middle;spacingLeft=4;spacingRight=4;overflow=hidden;points=[[0,0.5],[1,0.5]];portConstraint=eastwest;rotatable=0;whiteSpace=wrap;html=1;" vertex="1" parent="Q1HxBQcaeAUIPnin6Fld-35">
          <mxGeometry y="30" width="205" height="30" as="geometry" />
        </mxCell>
        <mxCell id="Q1HxBQcaeAUIPnin6Fld-37" value="FK&amp;nbsp; &amp;nbsp; &amp;nbsp; &amp;nbsp;ID_Proveedor" style="text;strokeColor=none;fillColor=none;align=left;verticalAlign=middle;spacingLeft=4;spacingRight=4;overflow=hidden;points=[[0,0.5],[1,0.5]];portConstraint=eastwest;rotatable=0;whiteSpace=wrap;html=1;" vertex="1" parent="Q1HxBQcaeAUIPnin6Fld-35">
          <mxGeometry y="60" width="205" height="30" as="geometry" />
        </mxCell>
        <mxCell id="Q1HxBQcaeAUIPnin6Fld-38" value="&amp;nbsp; &amp;nbsp; &amp;nbsp; &amp;nbsp; &amp;nbsp; &amp;nbsp; ID_Pieza" style="text;strokeColor=none;fillColor=none;align=left;verticalAlign=middle;spacingLeft=4;spacingRight=4;overflow=hidden;points=[[0,0.5],[1,0.5]];portConstraint=eastwest;rotatable=0;whiteSpace=wrap;html=1;" vertex="1" parent="Q1HxBQcaeAUIPnin6Fld-35">
          <mxGeometry y="90" width="205" height="30" as="geometry" />
        </mxCell>
        <mxCell id="Q1HxBQcaeAUIPnin6Fld-41" value="" style="endArrow=none;html=1;rounded=0;fontSize=12;startSize=8;endSize=8;curved=1;exitX=0.166;exitY=1;exitDx=0;exitDy=0;exitPerimeter=0;" edge="1" parent="Q1HxBQcaeAUIPnin6Fld-35">
          <mxGeometry width="50" height="50" relative="1" as="geometry">
            <mxPoint x="39" y="180" as="sourcePoint" />
            <mxPoint x="39.97000000000003" y="30" as="targetPoint" />
          </mxGeometry>
        </mxCell>
        <mxCell id="Q1HxBQcaeAUIPnin6Fld-39" value="&amp;nbsp; &amp;nbsp; &amp;nbsp; &amp;nbsp; &amp;nbsp; &amp;nbsp; Fecha" style="text;strokeColor=none;fillColor=none;align=left;verticalAlign=middle;spacingLeft=4;spacingRight=4;overflow=hidden;points=[[0,0.5],[1,0.5]];portConstraint=eastwest;rotatable=0;whiteSpace=wrap;html=1;" vertex="1" parent="Q1HxBQcaeAUIPnin6Fld-35">
          <mxGeometry y="120" width="205" height="30" as="geometry" />
        </mxCell>
        <mxCell id="Q1HxBQcaeAUIPnin6Fld-40" value="&amp;nbsp; &amp;nbsp; &amp;nbsp; &amp;nbsp; &amp;nbsp; &amp;nbsp; Cantidad" style="text;strokeColor=none;fillColor=none;align=left;verticalAlign=middle;spacingLeft=4;spacingRight=4;overflow=hidden;points=[[0,0.5],[1,0.5]];portConstraint=eastwest;rotatable=0;whiteSpace=wrap;html=1;" vertex="1" parent="Q1HxBQcaeAUIPnin6Fld-35">
          <mxGeometry y="150" width="205" height="30" as="geometry" />
        </mxCell>
        <mxCell id="Q1HxBQcaeAUIPnin6Fld-43" value="Proveedor" style="swimlane;fontStyle=0;childLayout=stackLayout;horizontal=1;startSize=30;horizontalStack=0;resizeParent=1;resizeParentMax=0;resizeLast=0;collapsible=1;marginBottom=0;whiteSpace=wrap;html=1;" vertex="1" parent="1">
          <mxGeometry x="-111" y="-92" width="205" height="180" as="geometry" />
        </mxCell>
        <mxCell id="Q1HxBQcaeAUIPnin6Fld-44" value="PK&amp;nbsp; &amp;nbsp; &amp;nbsp; &amp;nbsp;ID_Proveedor" style="text;strokeColor=none;fillColor=none;align=left;verticalAlign=middle;spacingLeft=4;spacingRight=4;overflow=hidden;points=[[0,0.5],[1,0.5]];portConstraint=eastwest;rotatable=0;whiteSpace=wrap;html=1;" vertex="1" parent="Q1HxBQcaeAUIPnin6Fld-43">
          <mxGeometry y="30" width="205" height="30" as="geometry" />
        </mxCell>
        <mxCell id="Q1HxBQcaeAUIPnin6Fld-45" value="&amp;nbsp; &amp;nbsp; &amp;nbsp; &amp;nbsp; &amp;nbsp; &amp;nbsp; Nombre" style="text;strokeColor=none;fillColor=none;align=left;verticalAlign=middle;spacingLeft=4;spacingRight=4;overflow=hidden;points=[[0,0.5],[1,0.5]];portConstraint=eastwest;rotatable=0;whiteSpace=wrap;html=1;" vertex="1" parent="Q1HxBQcaeAUIPnin6Fld-43">
          <mxGeometry y="60" width="205" height="30" as="geometry" />
        </mxCell>
        <mxCell id="Q1HxBQcaeAUIPnin6Fld-46" value="&amp;nbsp; &amp;nbsp; &amp;nbsp; &amp;nbsp; &amp;nbsp; &amp;nbsp; Dirección" style="text;strokeColor=none;fillColor=none;align=left;verticalAlign=middle;spacingLeft=4;spacingRight=4;overflow=hidden;points=[[0,0.5],[1,0.5]];portConstraint=eastwest;rotatable=0;whiteSpace=wrap;html=1;" vertex="1" parent="Q1HxBQcaeAUIPnin6Fld-43">
          <mxGeometry y="90" width="205" height="30" as="geometry" />
        </mxCell>
        <mxCell id="Q1HxBQcaeAUIPnin6Fld-47" value="" style="endArrow=none;html=1;rounded=0;fontSize=12;startSize=8;endSize=8;curved=1;exitX=0.166;exitY=1;exitDx=0;exitDy=0;exitPerimeter=0;" edge="1" parent="Q1HxBQcaeAUIPnin6Fld-43">
          <mxGeometry width="50" height="50" relative="1" as="geometry">
            <mxPoint x="39" y="180" as="sourcePoint" />
            <mxPoint x="39.97000000000003" y="30" as="targetPoint" />
          </mxGeometry>
        </mxCell>
        <mxCell id="Q1HxBQcaeAUIPnin6Fld-48" value="&amp;nbsp; &amp;nbsp; &amp;nbsp; &amp;nbsp; &amp;nbsp; &amp;nbsp; Ciudad" style="text;strokeColor=none;fillColor=none;align=left;verticalAlign=middle;spacingLeft=4;spacingRight=4;overflow=hidden;points=[[0,0.5],[1,0.5]];portConstraint=eastwest;rotatable=0;whiteSpace=wrap;html=1;" vertex="1" parent="Q1HxBQcaeAUIPnin6Fld-43">
          <mxGeometry y="120" width="205" height="30" as="geometry" />
        </mxCell>
        <mxCell id="Q1HxBQcaeAUIPnin6Fld-49" value="&amp;nbsp; &amp;nbsp; &amp;nbsp; &amp;nbsp; &amp;nbsp; &amp;nbsp; Provincia" style="text;strokeColor=none;fillColor=none;align=left;verticalAlign=middle;spacingLeft=4;spacingRight=4;overflow=hidden;points=[[0,0.5],[1,0.5]];portConstraint=eastwest;rotatable=0;whiteSpace=wrap;html=1;" vertex="1" parent="Q1HxBQcaeAUIPnin6Fld-43">
          <mxGeometry y="150" width="205" height="30" as="geometry" />
        </mxCell>
        <mxCell id="Q1HxBQcaeAUIPnin6Fld-50" value="Suministro" style="swimlane;fontStyle=0;childLayout=stackLayout;horizontal=1;startSize=30;horizontalStack=0;resizeParent=1;resizeParentMax=0;resizeLast=0;collapsible=1;marginBottom=0;whiteSpace=wrap;html=1;" vertex="1" parent="1">
          <mxGeometry x="578" y="-44" width="205" height="150" as="geometry" />
        </mxCell>
        <mxCell id="Q1HxBQcaeAUIPnin6Fld-51" value="PK&amp;nbsp; &amp;nbsp; &amp;nbsp; &amp;nbsp;ID_Pieza" style="text;strokeColor=none;fillColor=none;align=left;verticalAlign=middle;spacingLeft=4;spacingRight=4;overflow=hidden;points=[[0,0.5],[1,0.5]];portConstraint=eastwest;rotatable=0;whiteSpace=wrap;html=1;" vertex="1" parent="Q1HxBQcaeAUIPnin6Fld-50">
          <mxGeometry y="30" width="205" height="30" as="geometry" />
        </mxCell>
        <mxCell id="Q1HxBQcaeAUIPnin6Fld-52" value="&amp;nbsp; &amp;nbsp; &amp;nbsp; &amp;nbsp; &amp;nbsp; &amp;nbsp; Nombre" style="text;strokeColor=none;fillColor=none;align=left;verticalAlign=middle;spacingLeft=4;spacingRight=4;overflow=hidden;points=[[0,0.5],[1,0.5]];portConstraint=eastwest;rotatable=0;whiteSpace=wrap;html=1;" vertex="1" parent="Q1HxBQcaeAUIPnin6Fld-50">
          <mxGeometry y="60" width="205" height="30" as="geometry" />
        </mxCell>
        <mxCell id="Q1HxBQcaeAUIPnin6Fld-53" value="&amp;nbsp; &amp;nbsp; &amp;nbsp; &amp;nbsp; &amp;nbsp; &amp;nbsp; Color" style="text;strokeColor=none;fillColor=none;align=left;verticalAlign=middle;spacingLeft=4;spacingRight=4;overflow=hidden;points=[[0,0.5],[1,0.5]];portConstraint=eastwest;rotatable=0;whiteSpace=wrap;html=1;" vertex="1" parent="Q1HxBQcaeAUIPnin6Fld-50">
          <mxGeometry y="90" width="205" height="30" as="geometry" />
        </mxCell>
        <mxCell id="Q1HxBQcaeAUIPnin6Fld-54" value="" style="endArrow=none;html=1;rounded=0;fontSize=12;startSize=8;endSize=8;curved=1;exitX=0.195;exitY=1;exitDx=0;exitDy=0;exitPerimeter=0;" edge="1" parent="Q1HxBQcaeAUIPnin6Fld-50" source="Q1HxBQcaeAUIPnin6Fld-55">
          <mxGeometry width="50" height="50" relative="1" as="geometry">
            <mxPoint x="40" y="152" as="sourcePoint" />
            <mxPoint x="39.97000000000003" y="30" as="targetPoint" />
          </mxGeometry>
        </mxCell>
        <mxCell id="Q1HxBQcaeAUIPnin6Fld-55" value="FK&amp;nbsp; &amp;nbsp; &amp;nbsp; &amp;nbsp;Precio" style="text;strokeColor=none;fillColor=none;align=left;verticalAlign=middle;spacingLeft=4;spacingRight=4;overflow=hidden;points=[[0,0.5],[1,0.5]];portConstraint=eastwest;rotatable=0;whiteSpace=wrap;html=1;" vertex="1" parent="Q1HxBQcaeAUIPnin6Fld-50">
          <mxGeometry y="120" width="205" height="30" as="geometry" />
        </mxCell>
        <mxCell id="Q1HxBQcaeAUIPnin6Fld-57" value="" style="endArrow=none;html=1;rounded=0;fontSize=12;startSize=8;endSize=8;curved=1;" edge="1" parent="1">
          <mxGeometry width="50" height="50" relative="1" as="geometry">
            <mxPoint x="94" y="44" as="sourcePoint" />
            <mxPoint x="144" y="44" as="targetPoint" />
          </mxGeometry>
        </mxCell>
        <mxCell id="Q1HxBQcaeAUIPnin6Fld-58" value="" style="endArrow=none;html=1;rounded=0;fontSize=12;startSize=8;endSize=8;curved=1;" edge="1" parent="1">
          <mxGeometry width="50" height="50" relative="1" as="geometry">
            <mxPoint x="143" y="138" as="sourcePoint" />
            <mxPoint x="143" y="44" as="targetPoint" />
          </mxGeometry>
        </mxCell>
        <mxCell id="Q1HxBQcaeAUIPnin6Fld-59" value="" style="endArrow=none;html=1;rounded=0;fontSize=12;startSize=8;endSize=8;curved=1;" edge="1" parent="1">
          <mxGeometry width="50" height="50" relative="1" as="geometry">
            <mxPoint x="144" y="138" as="sourcePoint" />
            <mxPoint x="216" y="138" as="targetPoint" />
          </mxGeometry>
        </mxCell>
        <mxCell id="Q1HxBQcaeAUIPnin6Fld-60" value="" style="endArrow=none;html=1;rounded=0;fontSize=12;startSize=8;endSize=8;curved=1;" edge="1" parent="1">
          <mxGeometry width="50" height="50" relative="1" as="geometry">
            <mxPoint x="422" y="162" as="sourcePoint" />
            <mxPoint x="510" y="162" as="targetPoint" />
          </mxGeometry>
        </mxCell>
        <mxCell id="Q1HxBQcaeAUIPnin6Fld-61" value="" style="endArrow=none;html=1;rounded=0;fontSize=12;startSize=8;endSize=8;curved=1;" edge="1" parent="1">
          <mxGeometry width="50" height="50" relative="1" as="geometry">
            <mxPoint x="509" y="161" as="sourcePoint" />
            <mxPoint x="509" y="47" as="targetPoint" />
          </mxGeometry>
        </mxCell>
        <mxCell id="Q1HxBQcaeAUIPnin6Fld-62" value="" style="endArrow=none;html=1;rounded=0;fontSize=12;startSize=8;endSize=8;curved=1;" edge="1" parent="1">
          <mxGeometry width="50" height="50" relative="1" as="geometry">
            <mxPoint x="509" y="46.5" as="sourcePoint" />
            <mxPoint x="577" y="46.5" as="targetPoint" />
          </mxGeometry>
        </mxCell>
        <mxCell id="Q1HxBQcaeAUIPnin6Fld-76" value="Categoria" style="swimlane;fontStyle=0;childLayout=stackLayout;horizontal=1;startSize=30;horizontalStack=0;resizeParent=1;resizeParentMax=0;resizeLast=0;collapsible=1;marginBottom=0;whiteSpace=wrap;html=1;" vertex="1" parent="1">
          <mxGeometry x="582" y="204" width="205" height="90" as="geometry" />
        </mxCell>
        <mxCell id="Q1HxBQcaeAUIPnin6Fld-77" value="PK&amp;nbsp; &amp;nbsp; &amp;nbsp; &amp;nbsp;ID_Categoria" style="text;strokeColor=none;fillColor=none;align=left;verticalAlign=middle;spacingLeft=4;spacingRight=4;overflow=hidden;points=[[0,0.5],[1,0.5]];portConstraint=eastwest;rotatable=0;whiteSpace=wrap;html=1;" vertex="1" parent="Q1HxBQcaeAUIPnin6Fld-76">
          <mxGeometry y="30" width="205" height="30" as="geometry" />
        </mxCell>
        <mxCell id="Q1HxBQcaeAUIPnin6Fld-78" value="&amp;nbsp; &amp;nbsp; &amp;nbsp; &amp;nbsp; &amp;nbsp; &amp;nbsp; Nombre" style="text;strokeColor=none;fillColor=none;align=left;verticalAlign=middle;spacingLeft=4;spacingRight=4;overflow=hidden;points=[[0,0.5],[1,0.5]];portConstraint=eastwest;rotatable=0;whiteSpace=wrap;html=1;" vertex="1" parent="Q1HxBQcaeAUIPnin6Fld-76">
          <mxGeometry y="60" width="205" height="30" as="geometry" />
        </mxCell>
        <mxCell id="Q1HxBQcaeAUIPnin6Fld-80" value="" style="endArrow=none;html=1;rounded=0;fontSize=12;startSize=8;endSize=8;curved=1;" edge="1" parent="Q1HxBQcaeAUIPnin6Fld-76">
          <mxGeometry width="50" height="50" relative="1" as="geometry">
            <mxPoint x="40" y="89" as="sourcePoint" />
            <mxPoint x="39.97000000000003" y="30" as="targetPoint" />
          </mxGeometry>
        </mxCell>
        <mxCell id="Q1HxBQcaeAUIPnin6Fld-82" value="" style="endArrow=none;html=1;rounded=0;fontSize=12;startSize=8;endSize=8;curved=1;" edge="1" parent="1">
          <mxGeometry width="50" height="50" relative="1" as="geometry">
            <mxPoint x="680" y="202" as="sourcePoint" />
            <mxPoint x="680" y="106" as="targetPoint" />
          </mxGeometry>
        </mxCell>
      </root>
    </mxGraphModel>
  </diagram>
</mxfile>
